<svg width="100" height="100" viewBox="0 0 100 100" fill="none" xmlns="http://www.w3.org/2000/svg">
<g clip-path="url(#clip0_312_341)">
<path d="M87.5 28.125V56.25H81.25V28.125H68.75C66.2636 28.125 63.879 27.1373 62.1209 25.3791C60.3627 23.621 59.375 21.2364 59.375 18.75V6.25H25C23.3424 6.25 21.7527 6.90848 20.5806 8.08058C19.4085 9.25268 18.75 10.8424 18.75 12.5V56.25H12.5V12.5C12.5 9.18479 13.817 6.00537 16.1612 3.66117C18.5054 1.31696 21.6848 0 25 0L59.375 0L87.5 28.125ZM81.25 75H87.5V87.5C87.5 90.8152 86.183 93.9946 83.8388 96.3388C81.4946 98.683 78.3152 100 75 100H25C21.6848 100 18.5054 98.683 16.1612 96.3388C13.817 93.9946 12.5 90.8152 12.5 87.5V75H18.75V87.5C18.75 89.1576 19.4085 90.7473 20.5806 91.9194C21.7527 93.0915 23.3424 93.75 25 93.75H75C76.6576 93.75 78.2473 93.0915 79.4194 91.9194C80.5915 90.7473 81.25 89.1576 81.25 87.5V75ZM3.125 62.5C2.2962 62.5 1.50134 62.8292 0.915291 63.4153C0.32924 64.0013 0 64.7962 0 65.625C0 66.4538 0.32924 67.2487 0.915291 67.8347C1.50134 68.4208 2.2962 68.75 3.125 68.75H96.875C97.7038 68.75 98.4987 68.4208 99.0847 67.8347C99.6708 67.2487 100 66.4538 100 65.625C100 64.7962 99.6708 64.0013 99.0847 63.4153C98.4987 62.8292 97.7038 62.5 96.875 62.5H3.125Z" fill="#9CA3AF"/>
</g>
<defs>
<clipPath id="clip0_312_341">
<rect width="100" height="100" fill="white"/>
</clipPath>
</defs>
</svg>
